<svg width="89" height="42" viewBox="0 0 89 42" fill="none" xmlns="http://www.w3.org/2000/svg">
<path d="M21.6449 3.30554V21.2223H17.2898V10.4914L13.3175 21.2223H9.77592L5.75576 10.4435V21.2223H1.63989V3.30554H6.42579L11.2117 15.7131L15.9976 3.30554H21.6449Z" fill="white"/>
<path d="M27.4838 20.5037C26.3916 19.9303 25.4926 19.0471 24.8994 17.9647C24.225 16.786 23.8934 15.4419 23.9422 14.0844C23.8998 12.7427 24.2313 11.4157 24.8994 10.2519C25.5092 9.15355 26.4233 8.25516 27.5316 7.66499C28.711 7.09617 30.0033 6.80078 31.3125 6.80078C32.6216 6.80078 33.9139 7.09617 35.0933 7.66499C36.1907 8.26988 37.1012 9.16469 37.7256 10.2519C38.3542 11.44 38.6828 12.7639 38.6828 14.1083C38.6828 15.4527 38.3542 16.7767 37.7256 17.9647C37.0833 19.0423 36.1557 19.921 35.0455 20.5037C33.8745 21.101 32.5789 21.4124 31.2646 21.4124C29.9504 21.4124 28.6548 21.101 27.4838 20.5037ZM33.3704 16.7192C33.9461 16.053 34.2681 15.2046 34.2797 14.3239C34.3407 13.3675 34.0323 12.4243 33.4183 11.6891C33.1468 11.4029 32.8203 11.1747 32.4584 11.0183C32.0965 10.8618 31.7067 10.7804 31.3125 10.7789C30.917 10.7716 30.5244 10.8491 30.1613 11.0061C29.7981 11.163 29.4726 11.3959 29.2067 11.6891C28.5926 12.4243 28.2842 13.3675 28.3452 14.3239C28.2894 15.2717 28.5784 16.2077 29.1588 16.9587C29.4207 17.257 29.7454 17.4933 30.1095 17.6507C30.4737 17.8081 30.8682 17.8826 31.2646 17.8689C31.6792 17.8471 32.0835 17.7325 32.448 17.5335C32.8124 17.3345 33.1276 17.0562 33.3704 16.7192Z" fill="#FECB5C"/>
<path d="M53.6631 8.43137C54.7106 9.67076 55.2418 11.266 55.1467 12.8866V21.2222H50.7915V13.4615C50.8348 12.6631 50.5788 11.8772 50.0737 11.2578C49.8205 10.9968 49.5143 10.7933 49.1758 10.661C48.8373 10.5288 48.4743 10.4709 48.1114 10.4913C47.7411 10.4671 47.3698 10.523 47.023 10.6553C46.6761 10.7876 46.3618 10.9931 46.1014 11.2578C45.5962 11.8772 45.3402 12.6631 45.3835 13.4615V21.2222H41.0283V6.85048H45.3835V8.7188C45.8437 8.08647 46.4517 7.57659 47.1543 7.23373C47.8975 6.93197 48.6989 6.80101 49.4994 6.85048C50.2666 6.79343 51.0371 6.90541 51.7564 7.17854C52.4758 7.45167 53.1266 7.87932 53.6631 8.43137Z" fill="white"/>
<path d="M71.5143 15.1381H61.6554C61.6534 15.8895 61.9455 16.6117 62.469 17.1502C62.9752 17.6218 63.644 17.8793 64.3355 17.8688C64.8077 17.8972 65.2772 17.779 65.6798 17.5304C66.0824 17.2817 66.3984 16.9147 66.5848 16.4795H71.3707C71.1281 17.4191 70.6803 18.2931 70.0597 19.0387C69.439 19.7842 68.6609 20.3827 67.7813 20.791C66.7848 21.2217 65.7078 21.4341 64.6226 21.4138C63.3347 21.4492 62.0612 21.1347 60.9375 20.5036C59.8453 19.9301 58.9463 19.0469 58.3531 17.9646C57.7259 16.8487 57.3655 15.6025 57.3002 14.3237C57.2607 12.9731 57.5741 11.6355 58.2095 10.4434C58.7987 9.37435 59.6781 8.49408 60.7461 7.90437C61.9015 7.31642 63.1831 7.02038 64.479 7.04207C65.7597 7.02039 67.0258 7.31665 68.1642 7.90437C69.2126 8.46035 70.0772 9.30911 70.6529 10.3476C71.2785 11.4916 71.5922 12.7803 71.5622 14.0842C71.5621 14.4361 71.5461 14.7877 71.5143 15.1381ZM67.1113 12.7429C67.134 12.4007 67.0765 12.058 66.9436 11.742C66.8107 11.4259 66.6059 11.1453 66.3456 10.9224C65.808 10.477 65.1289 10.2391 64.4312 10.2518C63.7626 10.2404 63.114 10.4796 62.6126 10.9224C62.0764 11.3873 61.7347 12.0372 61.6554 12.7429H67.1113Z" fill="white"/>
<path d="M88.3601 6.99432L79.4584 27.9771H74.6725L78.214 20.7433L72.4709 6.99432H77.2568L80.5591 15.8569L83.8135 6.99432H88.3601Z" fill="white"/>
<path d="M7.88621 26.8485V28.2767H4.82797V37.8085H3.04271V28.2767H0V26.8485H7.88621Z" fill="white"/>
<path d="M11.4422 30.9313C11.732 30.3725 12.1459 29.9326 12.6841 29.6118C13.2223 29.2806 13.8432 29.115 14.547 29.115V31.04H14.0192C13.243 31.04 12.6168 31.2315 12.1408 31.6144C11.675 31.987 11.4422 32.6079 11.4422 33.4773V37.8085H9.67244V29.2547H11.4422V30.9313Z" fill="white"/>
<path d="M19.7695 29.1461C20.5457 29.1461 21.208 29.3375 21.7566 29.7204C22.3051 30.1034 22.6932 30.6105 22.9209 31.2418V29.2547H24.6906V37.8085H22.9209V35.8214C22.6932 36.4527 22.3051 36.9598 21.7566 37.3427C21.208 37.7257 20.5457 37.9171 19.7695 37.9171C19.0243 37.9171 18.3568 37.7412 17.7669 37.3893C17.1873 37.0374 16.732 36.5303 16.4008 35.868C16.0696 35.2056 15.904 34.4242 15.904 33.5238C15.904 32.6338 16.0696 31.8576 16.4008 31.1952C16.732 30.5329 17.1873 30.0258 17.7669 29.6739C18.3568 29.322 19.0243 29.1461 19.7695 29.1461ZM20.3128 30.6985C19.5263 30.6985 18.895 30.952 18.4189 31.4591C17.9532 31.9559 17.7203 32.6441 17.7203 33.5238C17.7203 34.4035 17.9532 35.0969 18.4189 35.6041C18.895 36.1008 19.5263 36.3492 20.3128 36.3492C20.8096 36.3492 21.2546 36.2354 21.6479 36.0077C22.0412 35.7696 22.3517 35.4385 22.5793 35.0141C22.807 34.5898 22.9209 34.0931 22.9209 33.5238C22.9209 32.965 22.807 32.4734 22.5793 32.0491C22.3517 31.6144 22.0412 31.2832 21.6479 31.0555C21.2546 30.8175 20.8096 30.6985 20.3128 30.6985Z" fill="white"/>
<path d="M31.0835 29.1461C32.1909 29.1461 33.1068 29.441 33.8312 30.0309C34.5557 30.6105 35.0059 31.4022 35.1818 32.4061H33.3034C33.1999 31.8679 32.9464 31.4488 32.5427 31.1487C32.1495 30.8382 31.6527 30.6829 31.0524 30.6829C30.3694 30.6829 29.8002 30.9261 29.3448 31.4126C28.8894 31.8886 28.6617 32.5924 28.6617 33.5238C28.6617 34.4553 28.8894 35.1642 29.3448 35.6506C29.8002 36.137 30.3694 36.3803 31.0524 36.3803C31.6527 36.3803 32.1495 36.225 32.5427 35.9145C32.9464 35.6041 33.1999 35.1797 33.3034 34.6416H35.1818C35.0059 35.6455 34.5557 36.4424 33.8312 37.0323C33.1068 37.6222 32.1909 37.9171 31.0835 37.9171C30.2555 37.9171 29.5207 37.7412 28.8791 37.3893C28.2477 37.0374 27.751 36.5303 27.3888 35.868C27.0265 35.2056 26.8454 34.4242 26.8454 33.5238C26.8454 32.6338 27.0265 31.8576 27.3888 31.1952C27.751 30.5329 28.2477 30.0258 28.8791 29.6739C29.5207 29.322 30.2555 29.1461 31.0835 29.1461Z" fill="white"/>
<path d="M42.2009 37.8085L39.1271 34.0051V37.8085H37.3574V26.3207H39.1271V32.9029L42.1698 29.2547H44.2966L40.5708 33.5083L44.3897 37.8085H42.2009Z" fill="white"/>
<path d="M45.7612 26.7709C45.7612 26.4708 45.8647 26.2224 46.0717 26.0257C46.2787 25.8291 46.5529 25.7308 46.8945 25.7308C47.236 25.7308 47.5102 25.8291 47.7172 26.0257C47.9346 26.2224 48.0432 26.4708 48.0432 26.7709C48.0432 27.071 47.9346 27.3142 47.7172 27.5005C47.5102 27.6868 47.236 27.7799 46.8945 27.7799C46.5529 27.7799 46.2787 27.6868 46.0717 27.5005C45.8647 27.3142 45.7612 27.071 45.7612 26.7709ZM47.7793 29.2547V37.8085H46.0096V29.2547H47.7793Z" fill="white"/>
<path d="M55.168 29.115C56.1616 29.115 56.9585 29.4358 57.5587 30.0775C58.159 30.7192 58.4591 31.6351 58.4591 32.8253V37.8085H56.6894V33.0115C56.6894 32.2457 56.4927 31.6558 56.0995 31.2418C55.7062 30.8175 55.168 30.6053 54.485 30.6053C53.7812 30.6053 53.2172 30.833 52.7929 31.2884C52.3685 31.7334 52.1564 32.3906 52.1564 33.2599V37.8085H50.3866V29.2547H52.1564V31.1331C52.3841 30.4915 52.767 29.9947 53.3051 29.6428C53.8433 29.291 54.4643 29.115 55.168 29.115Z" fill="white"/>
<path d="M64.4253 29.1461C65.2015 29.1461 65.8639 29.3375 66.4124 29.7204C66.9609 30.1034 67.349 30.6105 67.5767 31.2418V29.2547H69.3464V37.9016C69.3464 38.6985 69.1809 39.4023 68.8497 40.0129C68.5288 40.6338 68.0631 41.1203 67.4525 41.4721C66.8419 41.824 66.1174 42 65.2791 42C64.0786 42 63.1058 41.7153 62.3606 41.1461C61.6258 40.5769 61.1653 39.8059 60.979 38.8331H62.7332C62.8781 39.3402 63.1575 39.7334 63.5715 40.0129C63.9855 40.3027 64.5133 40.4476 65.155 40.4476C65.8587 40.4476 66.4383 40.2302 66.8936 39.7955C67.349 39.3609 67.5767 38.7296 67.5767 37.9016V35.8214C67.349 36.4527 66.9609 36.9598 66.4124 37.3427C65.8639 37.7257 65.2015 37.9171 64.4253 37.9171C63.6802 37.9171 63.0126 37.7412 62.4227 37.3893C61.8432 37.0374 61.3878 36.5303 61.0566 35.868C60.7254 35.2056 60.5598 34.4242 60.5598 33.5238C60.5598 32.6338 60.7254 31.8576 61.0566 31.1952C61.3878 30.5329 61.8432 30.0258 62.4227 29.6739C63.0126 29.322 63.6802 29.1461 64.4253 29.1461ZM64.9687 30.6985C64.1821 30.6985 63.5508 30.952 63.0747 31.4591C62.609 31.9559 62.3762 32.6441 62.3762 33.5238C62.3762 34.4035 62.609 35.0969 63.0747 35.6041C63.5508 36.1008 64.1821 36.3492 64.9687 36.3492C65.4654 36.3492 65.9105 36.2354 66.3037 36.0077C66.697 35.7696 67.0075 35.4385 67.2352 35.0141C67.4629 34.5898 67.5767 34.0931 67.5767 33.5238C67.5767 32.965 67.4629 32.4734 67.2352 32.0491C67.0075 31.6144 66.697 31.2832 66.3037 31.0555C65.9105 30.8175 65.4654 30.6985 64.9687 30.6985Z" fill="white"/>
<path d="M31.3128 19.4498C34.2732 19.4498 36.673 17.0476 36.673 14.0843C36.673 11.1211 34.2732 8.71887 31.3128 8.71887C28.3525 8.71887 25.9526 11.1211 25.9526 14.0843C25.9526 17.0476 28.3525 19.4498 31.3128 19.4498Z" fill="#FFC532"/>
<path d="M28.8242 15.6173V14.3238C30.2121 14.3238 31.7915 13.5094 31.7915 12.3118C31.8462 12.0109 31.8462 11.7025 31.7915 11.4016C31.5741 11.077 31.2776 10.8132 30.93 10.6351L31.4565 9.53326C31.9494 9.8422 32.3731 10.25 32.7008 10.7309C32.9255 11.2104 33.0399 11.7343 33.0358 12.2639C33.0358 14.3238 30.8343 15.6173 28.8242 15.6173Z" fill="#FFF2BC"/>
<path d="M33.8495 9.58093H28.92C28.55 9.58093 28.25 9.88121 28.25 10.2516C28.25 10.622 28.55 10.9223 28.92 10.9223H33.8495C34.2195 10.9223 34.5195 10.622 34.5195 10.2516C34.5195 9.88121 34.2195 9.58093 33.8495 9.58093Z" fill="#FFF2BC"/>
<path d="M33.8495 12.0723H28.92C28.55 12.0723 28.25 12.3725 28.25 12.7429C28.25 13.1134 28.55 13.4136 28.92 13.4136H33.8495C34.2195 13.4136 34.5195 13.1134 34.5195 12.7429C34.5195 12.3725 34.2195 12.0723 33.8495 12.0723Z" fill="#FFF2BC"/>
<path d="M29.2746 14.6207C29.036 14.3376 28.6132 14.3018 28.3304 14.5407C28.0476 14.7795 28.0118 15.2027 28.2505 15.4858L31.8309 19.7327C32.0695 20.0158 32.4922 20.0516 32.775 19.8128C33.0578 19.5739 33.0936 19.1507 32.855 18.8677L29.2746 14.6207Z" fill="#FFF2BC"/>
<path d="M36.3861 0L31.2173 5.7966L26.24 0H36.3861Z" fill="#FECB5C"/>
</svg>
