<svg width="169" height="81" viewBox="0 0 169 81" fill="none" xmlns="http://www.w3.org/2000/svg">
<path d="M41.3064 6.30795V40.4991H32.9953V20.021L25.4148 40.4991H18.6564L10.9846 19.9296V40.4991H3.13013V6.30795H12.2632L21.3963 29.9858L30.5294 6.30795H41.3064Z" fill="#1B1B4E"/>
<path d="M52.4491 39.1278C50.3648 38.0335 48.6493 36.3481 47.5172 34.2826C46.2303 32.0331 45.5975 29.4681 45.6906 26.8775C45.6098 24.3173 46.2423 21.7849 47.5172 19.5639C48.681 17.4679 50.4255 15.7535 52.5404 14.6272C54.7911 13.5418 57.2573 12.9781 59.7556 12.9781C62.2539 12.9781 64.72 13.5418 66.9707 14.6272C69.0649 15.7816 70.8024 17.4892 71.9939 19.5639C73.1934 21.8311 73.8205 24.3577 73.8205 26.9233C73.8205 29.4888 73.1934 32.0154 71.9939 34.2826C70.7681 36.3389 68.998 38.0158 66.8793 39.1278C64.6447 40.2677 62.1723 40.8619 59.6642 40.8619C57.1562 40.8619 54.6837 40.2677 52.4491 39.1278ZM63.6828 31.9057C64.7813 30.6343 65.3959 29.0154 65.4181 27.3346C65.5345 25.5096 64.9459 23.7096 63.7741 22.3065C63.2561 21.7604 62.633 21.325 61.9424 21.0265C61.2517 20.7279 60.5078 20.5725 59.7556 20.5696C59.0008 20.5557 58.2517 20.7036 57.5587 21.0031C56.8656 21.3027 56.2445 21.7471 55.737 22.3065C54.5652 23.7096 53.9766 25.5096 54.093 27.3346C53.9865 29.1434 54.5381 30.9296 55.6457 32.3628C56.1453 32.9319 56.765 33.3829 57.4599 33.6833C58.1548 33.9837 58.9077 34.1259 59.6642 34.0997C60.4553 34.0581 61.227 33.8393 61.9225 33.4596C62.6179 33.0799 63.2195 32.5489 63.6828 31.9057Z" fill="#FECB5C"/>
<path d="M102.407 16.09C104.406 18.4551 105.42 21.4993 105.238 24.592V40.4991H96.9269V25.6891C97.0095 24.1654 96.521 22.6658 95.5569 21.4838C95.0739 20.9857 94.4896 20.5973 93.8435 20.3449C93.1975 20.0926 92.5048 19.9821 91.8124 20.021C91.1055 19.9748 90.3971 20.0815 89.7352 20.334C89.0733 20.5864 88.4734 20.9785 87.9765 21.4838C87.0125 22.6658 86.5239 24.1654 86.6065 25.6891V40.4991H78.2954V13.0731H86.6065V16.6385C87.4848 15.4318 88.645 14.4588 89.9858 13.8045C91.404 13.2286 92.9333 12.9787 94.461 13.0731C95.9252 12.9642 97.3954 13.1779 98.7682 13.6992C100.141 14.2204 101.383 15.0365 102.407 16.09Z" fill="#1B1B4E"/>
<path d="M136.473 28.8888H117.659C117.656 30.3227 118.213 31.7009 119.212 32.7285C120.178 33.6285 121.454 34.1198 122.774 34.0998C123.675 34.1541 124.571 33.9285 125.339 33.454C126.107 32.9795 126.711 32.2791 127.066 31.4486H136.199C135.736 33.2417 134.882 34.9096 133.697 36.3324C132.513 37.7551 131.028 38.8972 129.35 39.6764C127.448 40.4984 125.393 40.9036 123.322 40.8649C120.864 40.9325 118.434 40.3322 116.289 39.1279C114.205 38.0335 112.489 36.3481 111.357 34.2826C110.16 32.1531 109.473 29.7749 109.348 27.3347C109.273 24.7572 109.871 22.2047 111.083 19.9297C112.208 17.8896 113.886 16.2098 115.924 15.0844C118.129 13.9624 120.575 13.3974 123.048 13.4388C125.492 13.3975 127.908 13.9628 130.08 15.0844C132.081 16.1454 133.731 17.7651 134.829 19.7468C136.023 21.93 136.622 24.3894 136.565 26.8776C136.565 27.549 136.534 28.2201 136.473 28.8888ZM128.071 24.3178C128.114 23.6649 128.005 23.0109 127.751 22.4078C127.497 21.8047 127.106 21.2692 126.61 20.8439C125.584 19.9939 124.288 19.5399 122.956 19.564C121.681 19.5423 120.443 19.9988 119.486 20.8439C118.463 21.7311 117.811 22.9713 117.659 24.3178H128.071Z" fill="#1B1B4E"/>
<path d="M168.621 13.3475L151.634 53.3895H142.501L149.259 39.5851L138.3 13.3475H147.433L153.734 30.2602L159.945 13.3475H168.621Z" fill="#1B1B4E"/>
<path d="M15.0495 51.236V53.9615H9.21338V72.1512H5.8065V53.9615H0V51.236H15.0495Z" fill="#35A894"/>
<path d="M21.8355 59.0273C22.3885 57.9608 23.1785 57.1215 24.2055 56.5092C25.2325 55.8772 26.4175 55.5612 27.7605 55.5612V59.2347H26.7532C25.272 59.2347 24.0771 59.6001 23.1686 60.3308C22.2799 61.0418 21.8355 62.2268 21.8355 63.8858V72.1512H18.4582V55.8278H21.8355V59.0273Z" fill="#35A894"/>
<path d="M37.7268 55.6205C39.208 55.6205 40.472 55.9858 41.5188 56.7166C42.5655 57.4473 43.3061 58.4151 43.7406 59.6198V55.8278H47.1179V72.1512H43.7406V68.3592C43.3061 69.564 42.5655 70.5317 41.5188 71.2625C40.472 71.9932 39.208 72.3586 37.7268 72.3586C36.3048 72.3586 35.0309 72.0228 33.9051 71.3513C32.7991 70.6798 31.9301 69.7121 31.2981 68.4481C30.6661 67.1841 30.3501 65.693 30.3501 63.9747C30.3501 62.2762 30.6661 60.795 31.2981 59.531C31.9301 58.267 32.7991 57.2992 33.9051 56.6277C35.0309 55.9562 36.3048 55.6205 37.7268 55.6205ZM38.7636 58.583C37.2626 58.583 36.0579 59.0668 35.1494 60.0346C34.2606 60.9826 33.8163 62.296 33.8163 63.9747C33.8163 65.6535 34.2606 66.9767 35.1494 67.9445C36.0579 68.8925 37.2626 69.3665 38.7636 69.3665C39.7116 69.3665 40.5609 69.1492 41.3114 68.7147C42.0619 68.2605 42.6544 67.6285 43.0889 66.8187C43.5234 66.009 43.7406 65.061 43.7406 63.9747C43.7406 62.9082 43.5234 61.9701 43.0889 61.1603C42.6544 60.3308 42.0619 59.6988 41.3114 59.2643C40.5609 58.8101 39.7116 58.583 38.7636 58.583Z" fill="#35A894"/>
<path d="M59.3176 55.6205C61.4309 55.6205 63.1787 56.1833 64.5612 57.3091C65.9437 58.4151 66.8029 59.926 67.1386 61.8417H63.554C63.3565 60.8147 62.8726 60.0148 62.1024 59.4421C61.3519 58.8496 60.4039 58.5533 59.2584 58.5533C57.9549 58.5533 56.8686 59.0175 55.9996 59.9457C55.1306 60.8542 54.6961 62.1972 54.6961 63.9747C54.6961 65.7522 55.1306 67.1051 55.9996 68.0333C56.8686 68.9616 57.9549 69.4257 59.2584 69.4257C60.4039 69.4257 61.3519 69.1295 62.1024 68.537C62.8726 67.9445 63.3565 67.1347 63.554 66.1077H67.1386C66.8029 68.0235 65.9437 69.5442 64.5612 70.67C63.1787 71.7957 61.4309 72.3586 59.3176 72.3586C57.7376 72.3586 56.3354 72.0228 55.1109 71.3513C53.9061 70.6798 52.9581 69.7121 52.2668 68.4481C51.5756 67.1841 51.23 65.693 51.23 63.9747C51.23 62.2762 51.5756 60.795 52.2668 59.531C52.9581 58.267 53.9061 57.2992 55.1109 56.6277C56.3354 55.9562 57.7376 55.6205 59.3176 55.6205Z" fill="#35A894"/>
<path d="M80.5333 72.1512L74.6675 64.8931V72.1512H71.2903V50.2287H74.6675V62.7897L80.474 55.8278H84.5327L77.4227 63.9451L84.7104 72.1512H80.5333Z" fill="#35A894"/>
<path d="M87.3276 51.0878C87.3276 50.5151 87.5251 50.0411 87.9201 49.6658C88.3151 49.2906 88.8385 49.103 89.4902 49.103C90.142 49.103 90.6653 49.2906 91.0603 49.6658C91.4751 50.0411 91.6825 50.5151 91.6825 51.0878C91.6825 51.6606 91.4751 52.1247 91.0603 52.4802C90.6653 52.8357 90.142 53.0135 89.4902 53.0135C88.8385 53.0135 88.3151 52.8357 87.9201 52.4802C87.5251 52.1247 87.3276 51.6606 87.3276 51.0878ZM91.1788 55.8278V72.1512H87.8016V55.8278H91.1788Z" fill="#35A894"/>
<path d="M105.279 55.5612C107.175 55.5612 108.696 56.1735 109.841 57.398C110.987 58.6225 111.559 60.3703 111.559 62.6416V72.1512H108.182V62.9971C108.182 61.5356 107.807 60.4098 107.056 59.6198C106.306 58.8101 105.279 58.4052 103.975 58.4052C102.632 58.4052 101.556 58.8397 100.746 59.7087C99.9366 60.558 99.5317 61.8121 99.5317 63.4711V72.1512H96.1545V55.8278H99.5317V59.4125C99.9662 58.188 100.697 57.24 101.724 56.5685C102.751 55.897 103.936 55.5612 105.279 55.5612Z" fill="#35A894"/>
<path d="M122.945 55.6205C124.426 55.6205 125.69 55.9858 126.737 56.7166C127.784 57.4473 128.524 58.4151 128.959 59.6198V55.8278H132.336V72.329C132.336 73.8497 132.02 75.1927 131.388 76.358C130.776 77.543 129.887 78.4712 128.722 79.1427C127.557 79.8142 126.174 80.15 124.574 80.15C122.283 80.15 120.427 79.6068 119.005 78.5206C117.603 77.4343 116.724 75.963 116.368 74.1065H119.716C119.992 75.0742 120.526 75.8247 121.316 76.358C122.106 76.911 123.113 77.1875 124.337 77.1875C125.68 77.1875 126.786 76.7727 127.655 75.9432C128.524 75.1137 128.959 73.909 128.959 72.329V68.3592C128.524 69.564 127.784 70.5317 126.737 71.2625C125.69 71.9932 124.426 72.3586 122.945 72.3586C121.523 72.3586 120.249 72.0228 119.123 71.3513C118.017 70.6798 117.148 69.7121 116.516 68.4481C115.884 67.1841 115.568 65.693 115.568 63.9747C115.568 62.2762 115.884 60.795 116.516 59.531C117.148 58.267 118.017 57.2992 119.123 56.6277C120.249 55.9562 121.523 55.6205 122.945 55.6205ZM123.982 58.583C122.481 58.583 121.276 59.0668 120.368 60.0346C119.479 60.9826 119.034 62.296 119.034 63.9747C119.034 65.6535 119.479 66.9767 120.368 67.9445C121.276 68.8925 122.481 69.3665 123.982 69.3665C124.93 69.3665 125.779 69.1492 126.53 68.7147C127.28 68.2605 127.873 67.6285 128.307 66.8187C128.742 66.009 128.959 65.061 128.959 63.9747C128.959 62.9082 128.742 61.9701 128.307 61.1603C127.873 60.3308 127.28 59.6988 126.53 59.2643C125.779 58.8101 124.93 58.583 123.982 58.583Z" fill="#35A894"/>
<path d="M59.7554 37.1165C65.4048 37.1165 69.9845 32.5324 69.9845 26.8775C69.9845 21.2226 65.4048 16.6384 59.7554 16.6384C54.1061 16.6384 49.5264 21.2226 49.5264 26.8775C49.5264 32.5324 54.1061 37.1165 59.7554 37.1165Z" fill="#FFC532"/>
<path d="M55.0061 29.803V27.3346C57.6547 27.3346 60.6686 25.7805 60.6686 23.495C60.7731 22.9207 60.7731 22.3323 60.6686 21.758C60.2537 21.1385 59.6879 20.6351 59.0247 20.2953L60.0293 18.1926C60.97 18.7822 61.7785 19.5604 62.4039 20.4781C62.8327 21.3932 63.0511 22.3929 63.0432 23.4036C63.0432 27.3346 58.842 29.803 55.0061 29.803Z" fill="#FFF2BC"/>
<path d="M64.5956 18.2839H55.1886C54.4824 18.2839 53.9099 18.8569 53.9099 19.5638C53.9099 20.2706 54.4824 20.8437 55.1886 20.8437H64.5956C65.3018 20.8437 65.8743 20.2706 65.8743 19.5638C65.8743 18.8569 65.3018 18.2839 64.5956 18.2839Z" fill="#FFF2BC"/>
<path d="M64.5956 23.0377H55.1886C54.4824 23.0377 53.9099 23.6107 53.9099 24.3176C53.9099 25.0245 54.4824 25.5975 55.1886 25.5975H64.5956C65.3018 25.5975 65.8743 25.0245 65.8743 24.3176C65.8743 23.6107 65.3018 23.0377 64.5956 23.0377Z" fill="#FFF2BC"/>
<path d="M55.8657 27.9011C55.4102 27.3609 54.6036 27.2925 54.0639 27.7484C53.5242 28.2042 53.4559 29.0117 53.9113 29.5519L60.7439 37.6566C61.1993 38.1968 62.006 38.2651 62.5457 37.8093C63.0854 37.3534 63.1537 36.5459 62.6982 36.0057L55.8657 27.9011Z" fill="#FFF2BC"/>
<path d="M69.4366 0L59.5729 11.0618L50.0745 0H69.4366Z" fill="#FECB5C"/>
</svg>
