<svg width="160" height="32" viewBox="0 0 160 32" fill="none" xmlns="http://www.w3.org/2000/svg">
<path d="M23.192 3.32H17.54C18.284 3.992 18.86 4.82 19.268 5.804H23.192V8.324H19.808C19.832 8.492 19.844 8.732 19.844 9.044C19.844 10.94 19.352 12.548 18.368 13.868C17.408 15.164 16.04 16.136 14.264 16.784L20.312 26H15.272L9.764 17.576H9.152H2.384V13.616H8.864C11 13.616 12.572 13.184 13.58 12.32C14.612 11.456 15.128 10.292 15.128 8.828V8.324H0.26V5.804H14.372C13.868 4.988 13.124 4.364 12.14 3.932C11.18 3.5 9.98 3.296 8.54 3.32H0.26V0.799998H23.192V3.32ZM54.7657 22.04V26H36.1897V22.868L46.1977 13.364C47.3257 12.284 48.0817 11.348 48.4657 10.556C48.8737 9.74 49.0777 8.936 49.0777 8.144C49.0777 6.968 48.6817 6.068 47.8897 5.444C47.0977 4.82 45.9337 4.508 44.3977 4.508C41.8297 4.508 39.8617 5.384 38.4937 7.136L35.2177 4.616C36.2017 3.296 37.5217 2.276 39.1777 1.556C40.8577 0.811999 42.7297 0.439999 44.7937 0.439999C47.5297 0.439999 49.7137 1.088 51.3457 2.384C52.9777 3.68 53.7937 5.444 53.7937 7.676C53.7937 9.044 53.5057 10.328 52.9297 11.528C52.3537 12.728 51.2497 14.096 49.6177 15.632L42.8857 22.04H54.7657ZM79.4035 20.276H74.9395V26H70.4035V20.276H56.5795V17.036L68.9995 0.799998H74.0035L62.3035 16.316H70.5475V11.24H74.9395V16.316H79.4035V20.276ZM84.9202 20.276C85.7602 20.276 86.4562 20.552 87.0082 21.104C87.5602 21.656 87.8362 22.376 87.8362 23.264C87.8362 23.648 87.7762 24.056 87.6562 24.488C87.5602 24.896 87.3442 25.52 87.0082 26.36L85.1722 31.436H82.2562L83.6962 25.928C83.1682 25.712 82.7482 25.376 82.4362 24.92C82.1482 24.44 82.0042 23.888 82.0042 23.264C82.0042 22.376 82.2802 21.656 82.8322 21.104C83.3842 20.552 84.0802 20.276 84.9202 20.276ZM100.955 26.36C98.9394 26.36 97.1394 25.856 95.5554 24.848C93.9714 23.816 92.7234 22.328 91.8114 20.384C90.8994 18.416 90.4434 16.088 90.4434 13.4C90.4434 10.712 90.8994 8.396 91.8114 6.452C92.7234 4.484 93.9714 2.996 95.5554 1.988C97.1394 0.955998 98.9394 0.439999 100.955 0.439999C102.971 0.439999 104.771 0.955998 106.355 1.988C107.963 2.996 109.223 4.484 110.135 6.452C111.047 8.396 111.503 10.712 111.503 13.4C111.503 16.088 111.047 18.416 110.135 20.384C109.223 22.328 107.963 23.816 106.355 24.848C104.771 25.856 102.971 26.36 100.955 26.36ZM100.955 22.292C102.755 22.292 104.171 21.548 105.203 20.06C106.259 18.572 106.787 16.352 106.787 13.4C106.787 10.448 106.259 8.228 105.203 6.74C104.171 5.252 102.755 4.508 100.955 4.508C99.1794 4.508 97.7634 5.252 96.7074 6.74C95.6754 8.228 95.1594 10.448 95.1594 13.4C95.1594 16.352 95.6754 18.572 96.7074 20.06C97.7634 21.548 99.1794 22.292 100.955 22.292ZM125.178 26.36C123.162 26.36 121.362 25.856 119.778 24.848C118.194 23.816 116.946 22.328 116.034 20.384C115.122 18.416 114.666 16.088 114.666 13.4C114.666 10.712 115.122 8.396 116.034 6.452C116.946 4.484 118.194 2.996 119.778 1.988C121.362 0.955998 123.162 0.439999 125.178 0.439999C127.194 0.439999 128.994 0.955998 130.578 1.988C132.186 2.996 133.446 4.484 134.358 6.452C135.27 8.396 135.726 10.712 135.726 13.4C135.726 16.088 135.27 18.416 134.358 20.384C133.446 22.328 132.186 23.816 130.578 24.848C128.994 25.856 127.194 26.36 125.178 26.36ZM125.178 22.292C126.978 22.292 128.394 21.548 129.426 20.06C130.482 18.572 131.01 16.352 131.01 13.4C131.01 10.448 130.482 8.228 129.426 6.74C128.394 5.252 126.978 4.508 125.178 4.508C123.402 4.508 121.986 5.252 120.93 6.74C119.898 8.228 119.382 10.448 119.382 13.4C119.382 16.352 119.898 18.572 120.93 20.06C121.986 21.548 123.402 22.292 125.178 22.292ZM149.401 26.36C147.385 26.36 145.585 25.856 144.001 24.848C142.417 23.816 141.169 22.328 140.257 20.384C139.345 18.416 138.889 16.088 138.889 13.4C138.889 10.712 139.345 8.396 140.257 6.452C141.169 4.484 142.417 2.996 144.001 1.988C145.585 0.955998 147.385 0.439999 149.401 0.439999C151.417 0.439999 153.217 0.955998 154.801 1.988C156.409 2.996 157.669 4.484 158.581 6.452C159.493 8.396 159.949 10.712 159.949 13.4C159.949 16.088 159.493 18.416 158.581 20.384C157.669 22.328 156.409 23.816 154.801 24.848C153.217 25.856 151.417 26.36 149.401 26.36ZM149.401 22.292C151.201 22.292 152.617 21.548 153.649 20.06C154.705 18.572 155.233 16.352 155.233 13.4C155.233 10.448 154.705 8.228 153.649 6.74C152.617 5.252 151.201 4.508 149.401 4.508C147.625 4.508 146.209 5.252 145.153 6.74C144.121 8.228 143.605 10.448 143.605 13.4C143.605 16.352 144.121 18.572 145.153 20.06C146.209 21.548 147.625 22.292 149.401 22.292Z" fill="#35A894"/>
</svg>
