<svg width="116" height="32" viewBox="0 0 116 32" fill="none" xmlns="http://www.w3.org/2000/svg">
<path d="M23.192 3.32H17.54C18.284 3.992 18.86 4.82 19.268 5.804H23.192V8.324H19.808C19.832 8.492 19.844 8.732 19.844 9.044C19.844 10.94 19.352 12.548 18.368 13.868C17.408 15.164 16.04 16.136 14.264 16.784L20.312 26H15.272L9.764 17.576H9.152H2.384V13.616H8.864C11 13.616 12.572 13.184 13.58 12.32C14.612 11.456 15.128 10.292 15.128 8.828V8.324H0.26V5.804H14.372C13.868 4.988 13.124 4.364 12.14 3.932C11.18 3.5 9.98 3.296 8.54 3.32H0.26V0.799998H23.192V3.32ZM35.628 0.799998V26H30.948V4.724H25.62V0.799998H35.628ZM43.471 20.276C44.311 20.276 45.007 20.552 45.559 21.104C46.111 21.656 46.387 22.376 46.387 23.264C46.387 23.648 46.327 24.056 46.207 24.488C46.111 24.896 45.895 25.52 45.559 26.36L43.723 31.436H40.807L42.247 25.928C41.719 25.712 41.299 25.376 40.987 24.92C40.699 24.44 40.555 23.888 40.555 23.264C40.555 22.376 40.831 21.656 41.383 21.104C41.935 20.552 42.631 20.276 43.471 20.276ZM57.3 10.556C60.852 10.556 63.48 11.252 65.184 12.644C66.888 14.012 67.74 15.884 67.74 18.26C67.74 19.772 67.368 21.14 66.624 22.364C65.88 23.588 64.764 24.56 63.276 25.28C61.788 26 59.952 26.36 57.768 26.36C55.968 26.36 54.228 26.108 52.548 25.604C50.868 25.076 49.452 24.356 48.3 23.444L50.28 19.808C51.216 20.576 52.332 21.188 53.628 21.644C54.948 22.076 56.304 22.292 57.696 22.292C59.352 22.292 60.648 21.956 61.584 21.284C62.544 20.588 63.024 19.64 63.024 18.44C63.024 17.144 62.508 16.172 61.476 15.524C60.468 14.852 58.728 14.516 56.256 14.516H50.172L51.468 0.799998H66.264V4.724H55.428L54.888 10.556H57.3ZM80.9515 26.36C78.9355 26.36 77.1355 25.856 75.5515 24.848C73.9675 23.816 72.7195 22.328 71.8075 20.384C70.8955 18.416 70.4395 16.088 70.4395 13.4C70.4395 10.712 70.8955 8.396 71.8075 6.452C72.7195 4.484 73.9675 2.996 75.5515 1.988C77.1355 0.955998 78.9355 0.439999 80.9515 0.439999C82.9675 0.439999 84.7675 0.955998 86.3515 1.988C87.9595 2.996 89.2195 4.484 90.1315 6.452C91.0435 8.396 91.4995 10.712 91.4995 13.4C91.4995 16.088 91.0435 18.416 90.1315 20.384C89.2195 22.328 87.9595 23.816 86.3515 24.848C84.7675 25.856 82.9675 26.36 80.9515 26.36ZM80.9515 22.292C82.7515 22.292 84.1675 21.548 85.1995 20.06C86.2555 18.572 86.7835 16.352 86.7835 13.4C86.7835 10.448 86.2555 8.228 85.1995 6.74C84.1675 5.252 82.7515 4.508 80.9515 4.508C79.1755 4.508 77.7595 5.252 76.7035 6.74C75.6715 8.228 75.1555 10.448 75.1555 13.4C75.1555 16.352 75.6715 18.572 76.7035 20.06C77.7595 21.548 79.1755 22.292 80.9515 22.292ZM105.174 26.36C103.158 26.36 101.358 25.856 99.7741 24.848C98.1901 23.816 96.9421 22.328 96.0301 20.384C95.1181 18.416 94.6621 16.088 94.6621 13.4C94.6621 10.712 95.1181 8.396 96.0301 6.452C96.9421 4.484 98.1901 2.996 99.7741 1.988C101.358 0.955998 103.158 0.439999 105.174 0.439999C107.19 0.439999 108.99 0.955998 110.574 1.988C112.182 2.996 113.442 4.484 114.354 6.452C115.266 8.396 115.722 10.712 115.722 13.4C115.722 16.088 115.266 18.416 114.354 20.384C113.442 22.328 112.182 23.816 110.574 24.848C108.99 25.856 107.19 26.36 105.174 26.36ZM105.174 22.292C106.974 22.292 108.39 21.548 109.422 20.06C110.478 18.572 111.006 16.352 111.006 13.4C111.006 10.448 110.478 8.228 109.422 6.74C108.39 5.252 106.974 4.508 105.174 4.508C103.398 4.508 101.982 5.252 100.926 6.74C99.8941 8.228 99.3781 10.448 99.3781 13.4C99.3781 16.352 99.8941 18.572 100.926 20.06C101.982 21.548 103.398 22.292 105.174 22.292Z" fill="#F2994A"/>
</svg>
