<svg width="126" height="32" viewBox="0 0 126 32" fill="none" xmlns="http://www.w3.org/2000/svg">
<path d="M23.192 3.32H17.54C18.284 3.992 18.86 4.82 19.268 5.804H23.192V8.324H19.808C19.832 8.492 19.844 8.732 19.844 9.044C19.844 10.94 19.352 12.548 18.368 13.868C17.408 15.164 16.04 16.136 14.264 16.784L20.312 26H15.272L9.764 17.576H9.152H2.384V13.616H8.864C11 13.616 12.572 13.184 13.58 12.32C14.612 11.456 15.128 10.292 15.128 8.828V8.324H0.26V5.804H14.372C13.868 4.988 13.124 4.364 12.14 3.932C11.18 3.5 9.98 3.296 8.54 3.32H0.26V0.799998H23.192V3.32ZM37.2925 11.204C39.6205 11.492 41.3965 12.284 42.6205 13.58C43.8445 14.876 44.4565 16.496 44.4565 18.44C44.4565 19.904 44.0845 21.236 43.3405 22.436C42.5965 23.636 41.4685 24.596 39.9565 25.316C38.4685 26.012 36.6445 26.36 34.4845 26.36C32.6845 26.36 30.9445 26.108 29.2645 25.604C27.6085 25.076 26.1925 24.356 25.0165 23.444L27.0325 19.808C27.9445 20.576 29.0485 21.188 30.3445 21.644C31.6645 22.076 33.0205 22.292 34.4125 22.292C36.0685 22.292 37.3645 21.956 38.3005 21.284C39.2605 20.588 39.7405 19.652 39.7405 18.476C39.7405 17.3 39.2845 16.388 38.3725 15.74C37.4845 15.068 36.1165 14.732 34.2685 14.732H31.9645V11.528L37.6885 4.724H26.2405V0.799998H43.4125V3.932L37.2925 11.204ZM50.3616 20.276C51.2016 20.276 51.8976 20.552 52.4496 21.104C53.0016 21.656 53.2776 22.376 53.2776 23.264C53.2776 23.648 53.2176 24.056 53.0976 24.488C53.0016 24.896 52.7856 25.52 52.4496 26.36L50.6136 31.436H47.6976L49.1376 25.928C48.6096 25.712 48.1896 25.376 47.8776 24.92C47.5896 24.44 47.4456 23.888 47.4456 23.264C47.4456 22.376 47.7216 21.656 48.2736 21.104C48.8256 20.552 49.5216 20.276 50.3616 20.276ZM66.3968 26.36C64.3808 26.36 62.5808 25.856 60.9968 24.848C59.4128 23.816 58.1648 22.328 57.2528 20.384C56.3408 18.416 55.8848 16.088 55.8848 13.4C55.8848 10.712 56.3408 8.396 57.2528 6.452C58.1648 4.484 59.4128 2.996 60.9968 1.988C62.5808 0.955998 64.3808 0.439999 66.3968 0.439999C68.4128 0.439999 70.2128 0.955998 71.7968 1.988C73.4048 2.996 74.6648 4.484 75.5768 6.452C76.4888 8.396 76.9448 10.712 76.9448 13.4C76.9448 16.088 76.4888 18.416 75.5768 20.384C74.6648 22.328 73.4048 23.816 71.7968 24.848C70.2128 25.856 68.4128 26.36 66.3968 26.36ZM66.3968 22.292C68.1968 22.292 69.6128 21.548 70.6448 20.06C71.7008 18.572 72.2288 16.352 72.2288 13.4C72.2288 10.448 71.7008 8.228 70.6448 6.74C69.6128 5.252 68.1968 4.508 66.3968 4.508C64.6208 4.508 63.2048 5.252 62.1488 6.74C61.1168 8.228 60.6008 10.448 60.6008 13.4C60.6008 16.352 61.1168 18.572 62.1488 20.06C63.2048 21.548 64.6208 22.292 66.3968 22.292ZM90.6194 26.36C88.6034 26.36 86.8034 25.856 85.2194 24.848C83.6354 23.816 82.3874 22.328 81.4754 20.384C80.5634 18.416 80.1074 16.088 80.1074 13.4C80.1074 10.712 80.5634 8.396 81.4754 6.452C82.3874 4.484 83.6354 2.996 85.2194 1.988C86.8034 0.955998 88.6034 0.439999 90.6194 0.439999C92.6354 0.439999 94.4354 0.955998 96.0194 1.988C97.6274 2.996 98.8874 4.484 99.7994 6.452C100.711 8.396 101.167 10.712 101.167 13.4C101.167 16.088 100.711 18.416 99.7994 20.384C98.8874 22.328 97.6274 23.816 96.0194 24.848C94.4354 25.856 92.6354 26.36 90.6194 26.36ZM90.6194 22.292C92.4194 22.292 93.8354 21.548 94.8674 20.06C95.9234 18.572 96.4514 16.352 96.4514 13.4C96.4514 10.448 95.9234 8.228 94.8674 6.74C93.8354 5.252 92.4194 4.508 90.6194 4.508C88.8434 4.508 87.4274 5.252 86.3714 6.74C85.3394 8.228 84.8234 10.448 84.8234 13.4C84.8234 16.352 85.3394 18.572 86.3714 20.06C87.4274 21.548 88.8434 22.292 90.6194 22.292ZM114.842 26.36C112.826 26.36 111.026 25.856 109.442 24.848C107.858 23.816 106.61 22.328 105.698 20.384C104.786 18.416 104.33 16.088 104.33 13.4C104.33 10.712 104.786 8.396 105.698 6.452C106.61 4.484 107.858 2.996 109.442 1.988C111.026 0.955998 112.826 0.439999 114.842 0.439999C116.858 0.439999 118.658 0.955998 120.242 1.988C121.85 2.996 123.11 4.484 124.022 6.452C124.934 8.396 125.39 10.712 125.39 13.4C125.39 16.088 124.934 18.416 124.022 20.384C123.11 22.328 121.85 23.816 120.242 24.848C118.658 25.856 116.858 26.36 114.842 26.36ZM114.842 22.292C116.642 22.292 118.058 21.548 119.09 20.06C120.146 18.572 120.674 16.352 120.674 13.4C120.674 10.448 120.146 8.228 119.09 6.74C118.058 5.252 116.642 4.508 114.842 4.508C113.066 4.508 111.65 5.252 110.594 6.74C109.562 8.228 109.046 10.448 109.046 13.4C109.046 16.352 109.562 18.572 110.594 20.06C111.65 21.548 113.066 22.292 114.842 22.292Z" fill="#EB5757"/>
</svg>
